<mxfile host="app.diagrams.net" modified="2021-09-28T10:34:46.886Z" agent="5.0 (Windows NT 10.0; Win64; x64) AppleWebKit/537.36 (KHTML, like Gecko) Chrome/93.0.4577.82 Safari/537.36" etag="3KlVsLepeShiIGAXD-Wc" version="15.3.5" type="github">
  <diagram id="dAYgQcbT6BfOUovO4Bs9" name="Page-1">
    <mxGraphModel dx="868" dy="482" grid="1" gridSize="10" guides="1" tooltips="1" connect="1" arrows="1" fold="1" page="1" pageScale="1" pageWidth="240" pageHeight="360" math="0" shadow="0">
      <root>
        <mxCell id="0" />
        <mxCell id="1" parent="0" />
        <mxCell id="z8ccg5G6_Xe8EJRNO6vA-19" value="" style="shape=table;startSize=0;container=1;collapsible=0;childLayout=tableLayout;hachureGap=4;pointerEvents=0;" vertex="1" parent="1">
          <mxGeometry x="30" y="270" width="30" height="40" as="geometry" />
        </mxCell>
        <mxCell id="z8ccg5G6_Xe8EJRNO6vA-20" value="" style="shape=partialRectangle;collapsible=0;dropTarget=0;pointerEvents=0;fillColor=none;top=0;left=0;bottom=0;right=0;points=[[0,0.5],[1,0.5]];portConstraint=eastwest;hachureGap=4;" vertex="1" parent="z8ccg5G6_Xe8EJRNO6vA-19">
          <mxGeometry width="30" height="20" as="geometry" />
        </mxCell>
        <mxCell id="z8ccg5G6_Xe8EJRNO6vA-21" value="4" style="shape=partialRectangle;html=1;whiteSpace=wrap;connectable=0;overflow=hidden;fillColor=none;top=0;left=0;bottom=0;right=0;pointerEvents=1;hachureGap=4;" vertex="1" parent="z8ccg5G6_Xe8EJRNO6vA-20">
          <mxGeometry width="30" height="20" as="geometry">
            <mxRectangle width="30" height="20" as="alternateBounds" />
          </mxGeometry>
        </mxCell>
        <mxCell id="z8ccg5G6_Xe8EJRNO6vA-22" value="" style="shape=partialRectangle;collapsible=0;dropTarget=0;pointerEvents=0;fillColor=none;top=0;left=0;bottom=0;right=0;points=[[0,0.5],[1,0.5]];portConstraint=eastwest;hachureGap=4;" vertex="1" parent="z8ccg5G6_Xe8EJRNO6vA-19">
          <mxGeometry y="20" width="30" height="20" as="geometry" />
        </mxCell>
        <mxCell id="z8ccg5G6_Xe8EJRNO6vA-23" value="10" style="shape=partialRectangle;html=1;whiteSpace=wrap;connectable=0;overflow=hidden;fillColor=none;top=0;left=0;bottom=0;right=0;pointerEvents=1;hachureGap=4;" vertex="1" parent="z8ccg5G6_Xe8EJRNO6vA-22">
          <mxGeometry width="30" height="20" as="geometry">
            <mxRectangle width="30" height="20" as="alternateBounds" />
          </mxGeometry>
        </mxCell>
        <mxCell id="z8ccg5G6_Xe8EJRNO6vA-24" value="" style="shape=table;startSize=0;container=1;collapsible=0;childLayout=tableLayout;hachureGap=4;pointerEvents=0;" vertex="1" parent="1">
          <mxGeometry x="70" y="270" width="30" height="40" as="geometry" />
        </mxCell>
        <mxCell id="z8ccg5G6_Xe8EJRNO6vA-25" value="" style="shape=partialRectangle;collapsible=0;dropTarget=0;pointerEvents=0;fillColor=none;top=0;left=0;bottom=0;right=0;points=[[0,0.5],[1,0.5]];portConstraint=eastwest;hachureGap=4;" vertex="1" parent="z8ccg5G6_Xe8EJRNO6vA-24">
          <mxGeometry width="30" height="20" as="geometry" />
        </mxCell>
        <mxCell id="z8ccg5G6_Xe8EJRNO6vA-26" value="5" style="shape=partialRectangle;html=1;whiteSpace=wrap;connectable=0;overflow=hidden;fillColor=none;top=0;left=0;bottom=0;right=0;pointerEvents=1;hachureGap=4;" vertex="1" parent="z8ccg5G6_Xe8EJRNO6vA-25">
          <mxGeometry width="30" height="20" as="geometry">
            <mxRectangle width="30" height="20" as="alternateBounds" />
          </mxGeometry>
        </mxCell>
        <mxCell id="z8ccg5G6_Xe8EJRNO6vA-27" value="" style="shape=partialRectangle;collapsible=0;dropTarget=0;pointerEvents=0;fillColor=none;top=0;left=0;bottom=0;right=0;points=[[0,0.5],[1,0.5]];portConstraint=eastwest;hachureGap=4;" vertex="1" parent="z8ccg5G6_Xe8EJRNO6vA-24">
          <mxGeometry y="20" width="30" height="20" as="geometry" />
        </mxCell>
        <mxCell id="z8ccg5G6_Xe8EJRNO6vA-28" value="10" style="shape=partialRectangle;html=1;whiteSpace=wrap;connectable=0;overflow=hidden;fillColor=none;top=0;left=0;bottom=0;right=0;pointerEvents=1;hachureGap=4;" vertex="1" parent="z8ccg5G6_Xe8EJRNO6vA-27">
          <mxGeometry width="30" height="20" as="geometry">
            <mxRectangle width="30" height="20" as="alternateBounds" />
          </mxGeometry>
        </mxCell>
        <mxCell id="z8ccg5G6_Xe8EJRNO6vA-29" value="" style="shape=table;startSize=0;container=1;collapsible=0;childLayout=tableLayout;hachureGap=4;pointerEvents=0;" vertex="1" parent="1">
          <mxGeometry x="110" y="270" width="30" height="40" as="geometry" />
        </mxCell>
        <mxCell id="z8ccg5G6_Xe8EJRNO6vA-30" value="" style="shape=partialRectangle;collapsible=0;dropTarget=0;pointerEvents=0;fillColor=none;top=0;left=0;bottom=0;right=0;points=[[0,0.5],[1,0.5]];portConstraint=eastwest;hachureGap=4;" vertex="1" parent="z8ccg5G6_Xe8EJRNO6vA-29">
          <mxGeometry width="30" height="20" as="geometry" />
        </mxCell>
        <mxCell id="z8ccg5G6_Xe8EJRNO6vA-31" value="54" style="shape=partialRectangle;html=1;whiteSpace=wrap;connectable=0;overflow=hidden;fillColor=none;top=0;left=0;bottom=0;right=0;pointerEvents=1;hachureGap=4;" vertex="1" parent="z8ccg5G6_Xe8EJRNO6vA-30">
          <mxGeometry width="30" height="20" as="geometry">
            <mxRectangle width="30" height="20" as="alternateBounds" />
          </mxGeometry>
        </mxCell>
        <mxCell id="z8ccg5G6_Xe8EJRNO6vA-32" value="" style="shape=partialRectangle;collapsible=0;dropTarget=0;pointerEvents=0;fillColor=none;top=0;left=0;bottom=0;right=0;points=[[0,0.5],[1,0.5]];portConstraint=eastwest;hachureGap=4;" vertex="1" parent="z8ccg5G6_Xe8EJRNO6vA-29">
          <mxGeometry y="20" width="30" height="20" as="geometry" />
        </mxCell>
        <mxCell id="z8ccg5G6_Xe8EJRNO6vA-33" value="19" style="shape=partialRectangle;html=1;whiteSpace=wrap;connectable=0;overflow=hidden;fillColor=none;top=0;left=0;bottom=0;right=0;pointerEvents=1;hachureGap=4;" vertex="1" parent="z8ccg5G6_Xe8EJRNO6vA-32">
          <mxGeometry width="30" height="20" as="geometry">
            <mxRectangle width="30" height="20" as="alternateBounds" />
          </mxGeometry>
        </mxCell>
        <mxCell id="z8ccg5G6_Xe8EJRNO6vA-34" value="" style="shape=table;startSize=0;container=1;collapsible=0;childLayout=tableLayout;hachureGap=4;pointerEvents=0;" vertex="1" parent="1">
          <mxGeometry x="150" y="270" width="30" height="40" as="geometry" />
        </mxCell>
        <mxCell id="z8ccg5G6_Xe8EJRNO6vA-35" value="" style="shape=partialRectangle;collapsible=0;dropTarget=0;pointerEvents=0;fillColor=none;top=0;left=0;bottom=0;right=0;points=[[0,0.5],[1,0.5]];portConstraint=eastwest;hachureGap=4;" vertex="1" parent="z8ccg5G6_Xe8EJRNO6vA-34">
          <mxGeometry width="30" height="20" as="geometry" />
        </mxCell>
        <mxCell id="z8ccg5G6_Xe8EJRNO6vA-36" value="54" style="shape=partialRectangle;html=1;whiteSpace=wrap;connectable=0;overflow=hidden;fillColor=none;top=0;left=0;bottom=0;right=0;pointerEvents=1;hachureGap=4;" vertex="1" parent="z8ccg5G6_Xe8EJRNO6vA-35">
          <mxGeometry width="30" height="20" as="geometry">
            <mxRectangle width="30" height="20" as="alternateBounds" />
          </mxGeometry>
        </mxCell>
        <mxCell id="z8ccg5G6_Xe8EJRNO6vA-37" value="" style="shape=partialRectangle;collapsible=0;dropTarget=0;pointerEvents=0;fillColor=none;top=0;left=0;bottom=0;right=0;points=[[0,0.5],[1,0.5]];portConstraint=eastwest;hachureGap=4;" vertex="1" parent="z8ccg5G6_Xe8EJRNO6vA-34">
          <mxGeometry y="20" width="30" height="20" as="geometry" />
        </mxCell>
        <mxCell id="z8ccg5G6_Xe8EJRNO6vA-38" value="20" style="shape=partialRectangle;html=1;whiteSpace=wrap;connectable=0;overflow=hidden;fillColor=none;top=0;left=0;bottom=0;right=0;pointerEvents=1;hachureGap=4;" vertex="1" parent="z8ccg5G6_Xe8EJRNO6vA-37">
          <mxGeometry width="30" height="20" as="geometry">
            <mxRectangle width="30" height="20" as="alternateBounds" />
          </mxGeometry>
        </mxCell>
        <mxCell id="z8ccg5G6_Xe8EJRNO6vA-39" value="" style="shape=table;startSize=0;container=1;collapsible=0;childLayout=tableLayout;hachureGap=4;pointerEvents=0;" vertex="1" parent="1">
          <mxGeometry x="190" y="270" width="30" height="40" as="geometry" />
        </mxCell>
        <mxCell id="z8ccg5G6_Xe8EJRNO6vA-40" value="" style="shape=partialRectangle;collapsible=0;dropTarget=0;pointerEvents=0;fillColor=none;top=0;left=0;bottom=0;right=0;points=[[0,0.5],[1,0.5]];portConstraint=eastwest;hachureGap=4;" vertex="1" parent="z8ccg5G6_Xe8EJRNO6vA-39">
          <mxGeometry width="30" height="20" as="geometry" />
        </mxCell>
        <mxCell id="z8ccg5G6_Xe8EJRNO6vA-41" value="12" style="shape=partialRectangle;html=1;whiteSpace=wrap;connectable=0;overflow=hidden;fillColor=none;top=0;left=0;bottom=0;right=0;pointerEvents=1;hachureGap=4;" vertex="1" parent="z8ccg5G6_Xe8EJRNO6vA-40">
          <mxGeometry width="30" height="20" as="geometry">
            <mxRectangle width="30" height="20" as="alternateBounds" />
          </mxGeometry>
        </mxCell>
        <mxCell id="z8ccg5G6_Xe8EJRNO6vA-42" value="" style="shape=partialRectangle;collapsible=0;dropTarget=0;pointerEvents=0;fillColor=none;top=0;left=0;bottom=0;right=0;points=[[0,0.5],[1,0.5]];portConstraint=eastwest;hachureGap=4;" vertex="1" parent="z8ccg5G6_Xe8EJRNO6vA-39">
          <mxGeometry y="20" width="30" height="20" as="geometry" />
        </mxCell>
        <mxCell id="z8ccg5G6_Xe8EJRNO6vA-43" value="17" style="shape=partialRectangle;html=1;whiteSpace=wrap;connectable=0;overflow=hidden;fillColor=none;top=0;left=0;bottom=0;right=0;pointerEvents=1;hachureGap=4;" vertex="1" parent="z8ccg5G6_Xe8EJRNO6vA-42">
          <mxGeometry width="30" height="20" as="geometry">
            <mxRectangle width="30" height="20" as="alternateBounds" />
          </mxGeometry>
        </mxCell>
        <mxCell id="z8ccg5G6_Xe8EJRNO6vA-44" value="" style="shape=table;startSize=0;container=1;collapsible=0;childLayout=tableLayout;hachureGap=4;pointerEvents=0;" vertex="1" parent="1">
          <mxGeometry x="250" y="270" width="30" height="40" as="geometry" />
        </mxCell>
        <mxCell id="z8ccg5G6_Xe8EJRNO6vA-45" value="" style="shape=partialRectangle;collapsible=0;dropTarget=0;pointerEvents=0;fillColor=none;top=0;left=0;bottom=0;right=0;points=[[0,0.5],[1,0.5]];portConstraint=eastwest;hachureGap=4;" vertex="1" parent="z8ccg5G6_Xe8EJRNO6vA-44">
          <mxGeometry width="30" height="20" as="geometry" />
        </mxCell>
        <mxCell id="z8ccg5G6_Xe8EJRNO6vA-46" value="90" style="shape=partialRectangle;html=1;whiteSpace=wrap;connectable=0;overflow=hidden;fillColor=none;top=0;left=0;bottom=0;right=0;pointerEvents=1;hachureGap=4;" vertex="1" parent="z8ccg5G6_Xe8EJRNO6vA-45">
          <mxGeometry width="30" height="20" as="geometry">
            <mxRectangle width="30" height="20" as="alternateBounds" />
          </mxGeometry>
        </mxCell>
        <mxCell id="z8ccg5G6_Xe8EJRNO6vA-47" value="" style="shape=partialRectangle;collapsible=0;dropTarget=0;pointerEvents=0;fillColor=none;top=0;left=0;bottom=0;right=0;points=[[0,0.5],[1,0.5]];portConstraint=eastwest;hachureGap=4;" vertex="1" parent="z8ccg5G6_Xe8EJRNO6vA-44">
          <mxGeometry y="20" width="30" height="20" as="geometry" />
        </mxCell>
        <mxCell id="z8ccg5G6_Xe8EJRNO6vA-48" value="19" style="shape=partialRectangle;html=1;whiteSpace=wrap;connectable=0;overflow=hidden;fillColor=none;top=0;left=0;bottom=0;right=0;pointerEvents=1;hachureGap=4;" vertex="1" parent="z8ccg5G6_Xe8EJRNO6vA-47">
          <mxGeometry width="30" height="20" as="geometry">
            <mxRectangle width="30" height="20" as="alternateBounds" />
          </mxGeometry>
        </mxCell>
        <mxCell id="z8ccg5G6_Xe8EJRNO6vA-49" value="" style="shape=table;startSize=0;container=1;collapsible=0;childLayout=tableLayout;hachureGap=4;pointerEvents=0;" vertex="1" parent="1">
          <mxGeometry x="290" y="270" width="30" height="40" as="geometry" />
        </mxCell>
        <mxCell id="z8ccg5G6_Xe8EJRNO6vA-50" value="" style="shape=partialRectangle;collapsible=0;dropTarget=0;pointerEvents=0;fillColor=none;top=0;left=0;bottom=0;right=0;points=[[0,0.5],[1,0.5]];portConstraint=eastwest;hachureGap=4;" vertex="1" parent="z8ccg5G6_Xe8EJRNO6vA-49">
          <mxGeometry width="30" height="20" as="geometry" />
        </mxCell>
        <mxCell id="z8ccg5G6_Xe8EJRNO6vA-51" value="90" style="shape=partialRectangle;html=1;whiteSpace=wrap;connectable=0;overflow=hidden;fillColor=none;top=0;left=0;bottom=0;right=0;pointerEvents=1;hachureGap=4;" vertex="1" parent="z8ccg5G6_Xe8EJRNO6vA-50">
          <mxGeometry width="30" height="20" as="geometry">
            <mxRectangle width="30" height="20" as="alternateBounds" />
          </mxGeometry>
        </mxCell>
        <mxCell id="z8ccg5G6_Xe8EJRNO6vA-52" value="" style="shape=partialRectangle;collapsible=0;dropTarget=0;pointerEvents=0;fillColor=none;top=0;left=0;bottom=0;right=0;points=[[0,0.5],[1,0.5]];portConstraint=eastwest;hachureGap=4;" vertex="1" parent="z8ccg5G6_Xe8EJRNO6vA-49">
          <mxGeometry y="20" width="30" height="20" as="geometry" />
        </mxCell>
        <mxCell id="z8ccg5G6_Xe8EJRNO6vA-53" value="20" style="shape=partialRectangle;html=1;whiteSpace=wrap;connectable=0;overflow=hidden;fillColor=none;top=0;left=0;bottom=0;right=0;pointerEvents=1;hachureGap=4;" vertex="1" parent="z8ccg5G6_Xe8EJRNO6vA-52">
          <mxGeometry width="30" height="20" as="geometry">
            <mxRectangle width="30" height="20" as="alternateBounds" />
          </mxGeometry>
        </mxCell>
        <mxCell id="z8ccg5G6_Xe8EJRNO6vA-54" value="" style="shape=table;startSize=0;container=1;collapsible=0;childLayout=tableLayout;hachureGap=4;pointerEvents=0;" vertex="1" parent="1">
          <mxGeometry x="340" y="270" width="30" height="40" as="geometry" />
        </mxCell>
        <mxCell id="z8ccg5G6_Xe8EJRNO6vA-55" value="" style="shape=partialRectangle;collapsible=0;dropTarget=0;pointerEvents=0;fillColor=none;top=0;left=0;bottom=0;right=0;points=[[0,0.5],[1,0.5]];portConstraint=eastwest;hachureGap=4;" vertex="1" parent="z8ccg5G6_Xe8EJRNO6vA-54">
          <mxGeometry width="30" height="20" as="geometry" />
        </mxCell>
        <mxCell id="z8ccg5G6_Xe8EJRNO6vA-56" value="11" style="shape=partialRectangle;html=1;whiteSpace=wrap;connectable=0;overflow=hidden;fillColor=none;top=0;left=0;bottom=0;right=0;pointerEvents=1;hachureGap=4;" vertex="1" parent="z8ccg5G6_Xe8EJRNO6vA-55">
          <mxGeometry width="30" height="20" as="geometry">
            <mxRectangle width="30" height="20" as="alternateBounds" />
          </mxGeometry>
        </mxCell>
        <mxCell id="z8ccg5G6_Xe8EJRNO6vA-57" value="" style="shape=partialRectangle;collapsible=0;dropTarget=0;pointerEvents=0;fillColor=none;top=0;left=0;bottom=0;right=0;points=[[0,0.5],[1,0.5]];portConstraint=eastwest;hachureGap=4;" vertex="1" parent="z8ccg5G6_Xe8EJRNO6vA-54">
          <mxGeometry y="20" width="30" height="20" as="geometry" />
        </mxCell>
        <mxCell id="z8ccg5G6_Xe8EJRNO6vA-58" value="14" style="shape=partialRectangle;html=1;whiteSpace=wrap;connectable=0;overflow=hidden;fillColor=none;top=0;left=0;bottom=0;right=0;pointerEvents=1;hachureGap=4;" vertex="1" parent="z8ccg5G6_Xe8EJRNO6vA-57">
          <mxGeometry width="30" height="20" as="geometry">
            <mxRectangle width="30" height="20" as="alternateBounds" />
          </mxGeometry>
        </mxCell>
        <mxCell id="z8ccg5G6_Xe8EJRNO6vA-59" value="" style="shape=table;startSize=0;container=1;collapsible=0;childLayout=tableLayout;hachureGap=4;pointerEvents=0;" vertex="1" parent="1">
          <mxGeometry x="380" y="270" width="30" height="40" as="geometry" />
        </mxCell>
        <mxCell id="z8ccg5G6_Xe8EJRNO6vA-60" value="" style="shape=partialRectangle;collapsible=0;dropTarget=0;pointerEvents=0;fillColor=none;top=0;left=0;bottom=0;right=0;points=[[0,0.5],[1,0.5]];portConstraint=eastwest;hachureGap=4;" vertex="1" parent="z8ccg5G6_Xe8EJRNO6vA-59">
          <mxGeometry width="30" height="20" as="geometry" />
        </mxCell>
        <mxCell id="z8ccg5G6_Xe8EJRNO6vA-61" value="44" style="shape=partialRectangle;html=1;whiteSpace=wrap;connectable=0;overflow=hidden;fillColor=none;top=0;left=0;bottom=0;right=0;pointerEvents=1;hachureGap=4;" vertex="1" parent="z8ccg5G6_Xe8EJRNO6vA-60">
          <mxGeometry width="30" height="20" as="geometry">
            <mxRectangle width="30" height="20" as="alternateBounds" />
          </mxGeometry>
        </mxCell>
        <mxCell id="z8ccg5G6_Xe8EJRNO6vA-62" value="" style="shape=partialRectangle;collapsible=0;dropTarget=0;pointerEvents=0;fillColor=none;top=0;left=0;bottom=0;right=0;points=[[0,0.5],[1,0.5]];portConstraint=eastwest;hachureGap=4;" vertex="1" parent="z8ccg5G6_Xe8EJRNO6vA-59">
          <mxGeometry y="20" width="30" height="20" as="geometry" />
        </mxCell>
        <mxCell id="z8ccg5G6_Xe8EJRNO6vA-63" value="39" style="shape=partialRectangle;html=1;whiteSpace=wrap;connectable=0;overflow=hidden;fillColor=none;top=0;left=0;bottom=0;right=0;pointerEvents=1;hachureGap=4;" vertex="1" parent="z8ccg5G6_Xe8EJRNO6vA-62">
          <mxGeometry width="30" height="20" as="geometry">
            <mxRectangle width="30" height="20" as="alternateBounds" />
          </mxGeometry>
        </mxCell>
        <mxCell id="z8ccg5G6_Xe8EJRNO6vA-64" value="" style="shape=table;startSize=0;container=1;collapsible=0;childLayout=tableLayout;hachureGap=4;pointerEvents=0;" vertex="1" parent="1">
          <mxGeometry x="420" y="270" width="30" height="40" as="geometry" />
        </mxCell>
        <mxCell id="z8ccg5G6_Xe8EJRNO6vA-65" value="" style="shape=partialRectangle;collapsible=0;dropTarget=0;pointerEvents=0;fillColor=none;top=0;left=0;bottom=0;right=0;points=[[0,0.5],[1,0.5]];portConstraint=eastwest;hachureGap=4;" vertex="1" parent="z8ccg5G6_Xe8EJRNO6vA-64">
          <mxGeometry width="30" height="20" as="geometry" />
        </mxCell>
        <mxCell id="z8ccg5G6_Xe8EJRNO6vA-66" value="45" style="shape=partialRectangle;html=1;whiteSpace=wrap;connectable=0;overflow=hidden;fillColor=none;top=0;left=0;bottom=0;right=0;pointerEvents=1;hachureGap=4;" vertex="1" parent="z8ccg5G6_Xe8EJRNO6vA-65">
          <mxGeometry width="30" height="20" as="geometry">
            <mxRectangle width="30" height="20" as="alternateBounds" />
          </mxGeometry>
        </mxCell>
        <mxCell id="z8ccg5G6_Xe8EJRNO6vA-67" value="" style="shape=partialRectangle;collapsible=0;dropTarget=0;pointerEvents=0;fillColor=none;top=0;left=0;bottom=0;right=0;points=[[0,0.5],[1,0.5]];portConstraint=eastwest;hachureGap=4;" vertex="1" parent="z8ccg5G6_Xe8EJRNO6vA-64">
          <mxGeometry y="20" width="30" height="20" as="geometry" />
        </mxCell>
        <mxCell id="z8ccg5G6_Xe8EJRNO6vA-68" value="40" style="shape=partialRectangle;html=1;whiteSpace=wrap;connectable=0;overflow=hidden;fillColor=none;top=0;left=0;bottom=0;right=0;pointerEvents=1;hachureGap=4;" vertex="1" parent="z8ccg5G6_Xe8EJRNO6vA-67">
          <mxGeometry width="30" height="20" as="geometry">
            <mxRectangle width="30" height="20" as="alternateBounds" />
          </mxGeometry>
        </mxCell>
        <mxCell id="z8ccg5G6_Xe8EJRNO6vA-69" value="" style="shape=table;startSize=0;container=1;collapsible=0;childLayout=tableLayout;hachureGap=4;pointerEvents=0;" vertex="1" parent="1">
          <mxGeometry x="40" y="189" width="30" height="40" as="geometry" />
        </mxCell>
        <mxCell id="z8ccg5G6_Xe8EJRNO6vA-70" value="" style="shape=partialRectangle;collapsible=0;dropTarget=0;pointerEvents=0;fillColor=none;top=0;left=0;bottom=0;right=0;points=[[0,0.5],[1,0.5]];portConstraint=eastwest;hachureGap=4;" vertex="1" parent="z8ccg5G6_Xe8EJRNO6vA-69">
          <mxGeometry width="30" height="20" as="geometry" />
        </mxCell>
        <mxCell id="z8ccg5G6_Xe8EJRNO6vA-71" value="&lt;u&gt;1&lt;/u&gt;&lt;b&gt;3&lt;/b&gt;" style="shape=partialRectangle;html=1;whiteSpace=wrap;connectable=0;overflow=hidden;fillColor=none;top=0;left=0;bottom=0;right=0;pointerEvents=1;hachureGap=4;" vertex="1" parent="z8ccg5G6_Xe8EJRNO6vA-70">
          <mxGeometry width="30" height="20" as="geometry">
            <mxRectangle width="30" height="20" as="alternateBounds" />
          </mxGeometry>
        </mxCell>
        <mxCell id="z8ccg5G6_Xe8EJRNO6vA-72" value="" style="shape=partialRectangle;collapsible=0;dropTarget=0;pointerEvents=0;fillColor=none;top=0;left=0;bottom=0;right=0;points=[[0,0.5],[1,0.5]];portConstraint=eastwest;hachureGap=4;" vertex="1" parent="z8ccg5G6_Xe8EJRNO6vA-69">
          <mxGeometry y="20" width="30" height="20" as="geometry" />
        </mxCell>
        <mxCell id="z8ccg5G6_Xe8EJRNO6vA-73" value="&lt;u&gt;5&lt;/u&gt;&lt;b&gt;5&lt;/b&gt;" style="shape=partialRectangle;html=1;whiteSpace=wrap;connectable=0;overflow=hidden;fillColor=none;top=0;left=0;bottom=0;right=0;pointerEvents=1;hachureGap=4;" vertex="1" parent="z8ccg5G6_Xe8EJRNO6vA-72">
          <mxGeometry width="30" height="20" as="geometry">
            <mxRectangle width="30" height="20" as="alternateBounds" />
          </mxGeometry>
        </mxCell>
        <mxCell id="z8ccg5G6_Xe8EJRNO6vA-183" value="" style="edgeStyle=none;curved=1;rounded=0;orthogonalLoop=1;jettySize=auto;html=1;endArrow=open;startSize=14;endSize=14;sourcePerimeterSpacing=8;targetPerimeterSpacing=8;entryX=0.533;entryY=0.1;entryDx=0;entryDy=0;entryPerimeter=0;fillColor=#f8cecc;strokeColor=#b85450;" edge="1" parent="1" source="z8ccg5G6_Xe8EJRNO6vA-74" target="z8ccg5G6_Xe8EJRNO6vA-25">
          <mxGeometry relative="1" as="geometry" />
        </mxCell>
        <mxCell id="z8ccg5G6_Xe8EJRNO6vA-74" value="" style="shape=table;startSize=0;container=1;collapsible=0;childLayout=tableLayout;hachureGap=4;pointerEvents=0;" vertex="1" parent="1">
          <mxGeometry x="85" y="190" width="30" height="40" as="geometry" />
        </mxCell>
        <mxCell id="z8ccg5G6_Xe8EJRNO6vA-75" value="" style="shape=partialRectangle;collapsible=0;dropTarget=0;pointerEvents=0;fillColor=none;top=0;left=0;bottom=0;right=0;points=[[0,0.5],[1,0.5]];portConstraint=eastwest;hachureGap=4;" vertex="1" parent="z8ccg5G6_Xe8EJRNO6vA-74">
          <mxGeometry width="30" height="20" as="geometry" />
        </mxCell>
        <mxCell id="z8ccg5G6_Xe8EJRNO6vA-76" value="&lt;u&gt;4&lt;/u&gt;&lt;b&gt;1&lt;/b&gt;" style="shape=partialRectangle;html=1;whiteSpace=wrap;connectable=0;overflow=hidden;fillColor=none;top=0;left=0;bottom=0;right=0;pointerEvents=1;hachureGap=4;" vertex="1" parent="z8ccg5G6_Xe8EJRNO6vA-75">
          <mxGeometry width="30" height="20" as="geometry">
            <mxRectangle width="30" height="20" as="alternateBounds" />
          </mxGeometry>
        </mxCell>
        <mxCell id="z8ccg5G6_Xe8EJRNO6vA-77" value="" style="shape=partialRectangle;collapsible=0;dropTarget=0;pointerEvents=0;fillColor=none;top=0;left=0;bottom=0;right=0;points=[[0,0.5],[1,0.5]];portConstraint=eastwest;hachureGap=4;" vertex="1" parent="z8ccg5G6_Xe8EJRNO6vA-74">
          <mxGeometry y="20" width="30" height="20" as="geometry" />
        </mxCell>
        <mxCell id="z8ccg5G6_Xe8EJRNO6vA-78" value="&lt;u&gt;6&lt;/u&gt;&lt;b&gt;4&lt;/b&gt;" style="shape=partialRectangle;html=1;whiteSpace=wrap;connectable=0;overflow=hidden;fillColor=none;top=0;left=0;bottom=0;right=0;pointerEvents=1;hachureGap=4;" vertex="1" parent="z8ccg5G6_Xe8EJRNO6vA-77">
          <mxGeometry width="30" height="20" as="geometry">
            <mxRectangle width="30" height="20" as="alternateBounds" />
          </mxGeometry>
        </mxCell>
        <mxCell id="z8ccg5G6_Xe8EJRNO6vA-184" value="" style="edgeStyle=none;curved=1;rounded=0;orthogonalLoop=1;jettySize=auto;html=1;endArrow=open;startSize=14;endSize=14;sourcePerimeterSpacing=8;targetPerimeterSpacing=8;entryX=0.467;entryY=-0.15;entryDx=0;entryDy=0;entryPerimeter=0;fillColor=#d5e8d4;strokeColor=#82b366;" edge="1" parent="1" source="z8ccg5G6_Xe8EJRNO6vA-79" target="z8ccg5G6_Xe8EJRNO6vA-30">
          <mxGeometry relative="1" as="geometry" />
        </mxCell>
        <mxCell id="z8ccg5G6_Xe8EJRNO6vA-79" value="" style="shape=table;startSize=0;container=1;collapsible=0;childLayout=tableLayout;hachureGap=4;pointerEvents=0;" vertex="1" parent="1">
          <mxGeometry x="130" y="190" width="30" height="40" as="geometry" />
        </mxCell>
        <mxCell id="z8ccg5G6_Xe8EJRNO6vA-80" value="" style="shape=partialRectangle;collapsible=0;dropTarget=0;pointerEvents=0;fillColor=none;top=0;left=0;bottom=0;right=0;points=[[0,0.5],[1,0.5]];portConstraint=eastwest;hachureGap=4;" vertex="1" parent="z8ccg5G6_Xe8EJRNO6vA-79">
          <mxGeometry width="30" height="20" as="geometry" />
        </mxCell>
        <mxCell id="z8ccg5G6_Xe8EJRNO6vA-81" value="&lt;u&gt;0&lt;/u&gt;&lt;b&gt;54&lt;/b&gt;" style="shape=partialRectangle;html=1;whiteSpace=wrap;connectable=0;overflow=hidden;fillColor=none;top=0;left=0;bottom=0;right=0;pointerEvents=1;hachureGap=4;" vertex="1" parent="z8ccg5G6_Xe8EJRNO6vA-80">
          <mxGeometry width="30" height="20" as="geometry">
            <mxRectangle width="30" height="20" as="alternateBounds" />
          </mxGeometry>
        </mxCell>
        <mxCell id="z8ccg5G6_Xe8EJRNO6vA-82" value="" style="shape=partialRectangle;collapsible=0;dropTarget=0;pointerEvents=0;fillColor=none;top=0;left=0;bottom=0;right=0;points=[[0,0.5],[1,0.5]];portConstraint=eastwest;hachureGap=4;" vertex="1" parent="z8ccg5G6_Xe8EJRNO6vA-79">
          <mxGeometry y="20" width="30" height="20" as="geometry" />
        </mxCell>
        <mxCell id="z8ccg5G6_Xe8EJRNO6vA-83" value="&lt;u&gt;1&lt;/u&gt;&lt;b&gt;19&lt;/b&gt;" style="shape=partialRectangle;html=1;whiteSpace=wrap;connectable=0;overflow=hidden;fillColor=none;top=0;left=0;bottom=0;right=0;pointerEvents=1;hachureGap=4;" vertex="1" parent="z8ccg5G6_Xe8EJRNO6vA-82">
          <mxGeometry width="30" height="20" as="geometry">
            <mxRectangle width="30" height="20" as="alternateBounds" />
          </mxGeometry>
        </mxCell>
        <mxCell id="z8ccg5G6_Xe8EJRNO6vA-187" value="" style="edgeStyle=none;curved=1;rounded=0;orthogonalLoop=1;jettySize=auto;html=1;endArrow=open;startSize=14;endSize=14;sourcePerimeterSpacing=8;targetPerimeterSpacing=8;fillColor=#f8cecc;strokeColor=#b85450;" edge="1" parent="1" source="z8ccg5G6_Xe8EJRNO6vA-84">
          <mxGeometry relative="1" as="geometry">
            <mxPoint x="203" y="270" as="targetPoint" />
          </mxGeometry>
        </mxCell>
        <mxCell id="z8ccg5G6_Xe8EJRNO6vA-84" value="" style="shape=table;startSize=0;container=1;collapsible=0;childLayout=tableLayout;hachureGap=4;pointerEvents=0;" vertex="1" parent="1">
          <mxGeometry x="180" y="190" width="30" height="40" as="geometry" />
        </mxCell>
        <mxCell id="z8ccg5G6_Xe8EJRNO6vA-85" value="" style="shape=partialRectangle;collapsible=0;dropTarget=0;pointerEvents=0;fillColor=none;top=0;left=0;bottom=0;right=0;points=[[0,0.5],[1,0.5]];portConstraint=eastwest;hachureGap=4;" vertex="1" parent="z8ccg5G6_Xe8EJRNO6vA-84">
          <mxGeometry width="30" height="20" as="geometry" />
        </mxCell>
        <mxCell id="z8ccg5G6_Xe8EJRNO6vA-86" value="&lt;u&gt;5&lt;/u&gt;&lt;b&gt;7&lt;/b&gt;" style="shape=partialRectangle;html=1;whiteSpace=wrap;connectable=0;overflow=hidden;fillColor=none;top=0;left=0;bottom=0;right=0;pointerEvents=1;hachureGap=4;" vertex="1" parent="z8ccg5G6_Xe8EJRNO6vA-85">
          <mxGeometry width="30" height="20" as="geometry">
            <mxRectangle width="30" height="20" as="alternateBounds" />
          </mxGeometry>
        </mxCell>
        <mxCell id="z8ccg5G6_Xe8EJRNO6vA-87" value="" style="shape=partialRectangle;collapsible=0;dropTarget=0;pointerEvents=0;fillColor=none;top=0;left=0;bottom=0;right=0;points=[[0,0.5],[1,0.5]];portConstraint=eastwest;hachureGap=4;" vertex="1" parent="z8ccg5G6_Xe8EJRNO6vA-84">
          <mxGeometry y="20" width="30" height="20" as="geometry" />
        </mxCell>
        <mxCell id="z8ccg5G6_Xe8EJRNO6vA-88" value="&lt;u&gt;9&lt;/u&gt;&lt;b&gt;8&lt;/b&gt;" style="shape=partialRectangle;html=1;whiteSpace=wrap;connectable=0;overflow=hidden;fillColor=none;top=0;left=0;bottom=0;right=0;pointerEvents=1;hachureGap=4;" vertex="1" parent="z8ccg5G6_Xe8EJRNO6vA-87">
          <mxGeometry width="30" height="20" as="geometry">
            <mxRectangle width="30" height="20" as="alternateBounds" />
          </mxGeometry>
        </mxCell>
        <mxCell id="z8ccg5G6_Xe8EJRNO6vA-89" value="" style="shape=table;startSize=0;container=1;collapsible=0;childLayout=tableLayout;hachureGap=4;pointerEvents=0;" vertex="1" parent="1">
          <mxGeometry x="225" y="190" width="30" height="40" as="geometry" />
        </mxCell>
        <mxCell id="z8ccg5G6_Xe8EJRNO6vA-90" value="" style="shape=partialRectangle;collapsible=0;dropTarget=0;pointerEvents=0;fillColor=none;top=0;left=0;bottom=0;right=0;points=[[0,0.5],[1,0.5]];portConstraint=eastwest;hachureGap=4;" vertex="1" parent="z8ccg5G6_Xe8EJRNO6vA-89">
          <mxGeometry width="30" height="20" as="geometry" />
        </mxCell>
        <mxCell id="z8ccg5G6_Xe8EJRNO6vA-91" value="&lt;u&gt;3&lt;/u&gt;&lt;b&gt;3&lt;/b&gt;" style="shape=partialRectangle;html=1;whiteSpace=wrap;connectable=0;overflow=hidden;fillColor=none;top=0;left=0;bottom=0;right=0;pointerEvents=1;hachureGap=4;" vertex="1" parent="z8ccg5G6_Xe8EJRNO6vA-90">
          <mxGeometry width="30" height="20" as="geometry">
            <mxRectangle width="30" height="20" as="alternateBounds" />
          </mxGeometry>
        </mxCell>
        <mxCell id="z8ccg5G6_Xe8EJRNO6vA-92" value="" style="shape=partialRectangle;collapsible=0;dropTarget=0;pointerEvents=0;fillColor=none;top=0;left=0;bottom=0;right=0;points=[[0,0.5],[1,0.5]];portConstraint=eastwest;hachureGap=4;" vertex="1" parent="z8ccg5G6_Xe8EJRNO6vA-89">
          <mxGeometry y="20" width="30" height="20" as="geometry" />
        </mxCell>
        <mxCell id="z8ccg5G6_Xe8EJRNO6vA-93" value="&lt;u&gt;2&lt;/u&gt;&lt;b&gt;1&lt;/b&gt;" style="shape=partialRectangle;html=1;whiteSpace=wrap;connectable=0;overflow=hidden;fillColor=none;top=0;left=0;bottom=0;right=0;pointerEvents=1;hachureGap=4;" vertex="1" parent="z8ccg5G6_Xe8EJRNO6vA-92">
          <mxGeometry width="30" height="20" as="geometry">
            <mxRectangle width="30" height="20" as="alternateBounds" />
          </mxGeometry>
        </mxCell>
        <mxCell id="z8ccg5G6_Xe8EJRNO6vA-188" value="" style="edgeStyle=none;curved=1;rounded=0;orthogonalLoop=1;jettySize=auto;html=1;endArrow=open;startSize=14;endSize=14;sourcePerimeterSpacing=8;targetPerimeterSpacing=8;entryX=0.533;entryY=0;entryDx=0;entryDy=0;entryPerimeter=0;fillColor=#f8cecc;strokeColor=#b85450;" edge="1" parent="1" source="z8ccg5G6_Xe8EJRNO6vA-94" target="z8ccg5G6_Xe8EJRNO6vA-50">
          <mxGeometry relative="1" as="geometry" />
        </mxCell>
        <mxCell id="z8ccg5G6_Xe8EJRNO6vA-189" value="" style="edgeStyle=none;curved=1;rounded=0;orthogonalLoop=1;jettySize=auto;html=1;endArrow=open;startSize=14;endSize=14;sourcePerimeterSpacing=8;targetPerimeterSpacing=8;entryX=0.6;entryY=-0.2;entryDx=0;entryDy=0;entryPerimeter=0;fillColor=#d5e8d4;strokeColor=#82b366;" edge="1" parent="1" source="z8ccg5G6_Xe8EJRNO6vA-94" target="z8ccg5G6_Xe8EJRNO6vA-45">
          <mxGeometry relative="1" as="geometry" />
        </mxCell>
        <mxCell id="z8ccg5G6_Xe8EJRNO6vA-94" value="" style="shape=table;startSize=0;container=1;collapsible=0;childLayout=tableLayout;hachureGap=4;pointerEvents=0;" vertex="1" parent="1">
          <mxGeometry x="270" y="190" width="30" height="40" as="geometry" />
        </mxCell>
        <mxCell id="z8ccg5G6_Xe8EJRNO6vA-95" value="" style="shape=partialRectangle;collapsible=0;dropTarget=0;pointerEvents=0;fillColor=none;top=0;left=0;bottom=0;right=0;points=[[0,0.5],[1,0.5]];portConstraint=eastwest;hachureGap=4;" vertex="1" parent="z8ccg5G6_Xe8EJRNO6vA-94">
          <mxGeometry width="30" height="20" as="geometry" />
        </mxCell>
        <mxCell id="z8ccg5G6_Xe8EJRNO6vA-96" value="&lt;u&gt;0&lt;/u&gt;&lt;b&gt;90&lt;/b&gt;" style="shape=partialRectangle;html=1;whiteSpace=wrap;connectable=0;overflow=hidden;fillColor=none;top=0;left=0;bottom=0;right=0;pointerEvents=1;hachureGap=4;" vertex="1" parent="z8ccg5G6_Xe8EJRNO6vA-95">
          <mxGeometry width="30" height="20" as="geometry">
            <mxRectangle width="30" height="20" as="alternateBounds" />
          </mxGeometry>
        </mxCell>
        <mxCell id="z8ccg5G6_Xe8EJRNO6vA-97" value="" style="shape=partialRectangle;collapsible=0;dropTarget=0;pointerEvents=0;fillColor=none;top=0;left=0;bottom=0;right=0;points=[[0,0.5],[1,0.5]];portConstraint=eastwest;hachureGap=4;" vertex="1" parent="z8ccg5G6_Xe8EJRNO6vA-94">
          <mxGeometry y="20" width="30" height="20" as="geometry" />
        </mxCell>
        <mxCell id="z8ccg5G6_Xe8EJRNO6vA-98" value="&lt;u&gt;1&lt;/u&gt;&lt;b&gt;19&lt;/b&gt;" style="shape=partialRectangle;html=1;whiteSpace=wrap;connectable=0;overflow=hidden;fillColor=none;top=0;left=0;bottom=0;right=0;pointerEvents=1;hachureGap=4;" vertex="1" parent="z8ccg5G6_Xe8EJRNO6vA-97">
          <mxGeometry width="30" height="20" as="geometry">
            <mxRectangle width="30" height="20" as="alternateBounds" />
          </mxGeometry>
        </mxCell>
        <mxCell id="z8ccg5G6_Xe8EJRNO6vA-99" value="" style="shape=table;startSize=0;container=1;collapsible=0;childLayout=tableLayout;hachureGap=4;pointerEvents=0;" vertex="1" parent="1">
          <mxGeometry x="320" y="190" width="30" height="40" as="geometry" />
        </mxCell>
        <mxCell id="z8ccg5G6_Xe8EJRNO6vA-100" value="" style="shape=partialRectangle;collapsible=0;dropTarget=0;pointerEvents=0;fillColor=none;top=0;left=0;bottom=0;right=0;points=[[0,0.5],[1,0.5]];portConstraint=eastwest;hachureGap=4;" vertex="1" parent="z8ccg5G6_Xe8EJRNO6vA-99">
          <mxGeometry width="30" height="20" as="geometry" />
        </mxCell>
        <mxCell id="z8ccg5G6_Xe8EJRNO6vA-101" value="&lt;u&gt;7&lt;/u&gt;&lt;b&gt;0&lt;/b&gt;" style="shape=partialRectangle;html=1;whiteSpace=wrap;connectable=0;overflow=hidden;fillColor=none;top=0;left=0;bottom=0;right=0;pointerEvents=1;hachureGap=4;" vertex="1" parent="z8ccg5G6_Xe8EJRNO6vA-100">
          <mxGeometry width="30" height="20" as="geometry">
            <mxRectangle width="30" height="20" as="alternateBounds" />
          </mxGeometry>
        </mxCell>
        <mxCell id="z8ccg5G6_Xe8EJRNO6vA-102" value="" style="shape=partialRectangle;collapsible=0;dropTarget=0;pointerEvents=0;fillColor=none;top=0;left=0;bottom=0;right=0;points=[[0,0.5],[1,0.5]];portConstraint=eastwest;hachureGap=4;" vertex="1" parent="z8ccg5G6_Xe8EJRNO6vA-99">
          <mxGeometry y="20" width="30" height="20" as="geometry" />
        </mxCell>
        <mxCell id="z8ccg5G6_Xe8EJRNO6vA-103" value="&lt;u&gt;5&lt;/u&gt;&lt;b&gt;3&lt;/b&gt;" style="shape=partialRectangle;html=1;whiteSpace=wrap;connectable=0;overflow=hidden;fillColor=none;top=0;left=0;bottom=0;right=0;pointerEvents=1;hachureGap=4;" vertex="1" parent="z8ccg5G6_Xe8EJRNO6vA-102">
          <mxGeometry width="30" height="20" as="geometry">
            <mxRectangle width="30" height="20" as="alternateBounds" />
          </mxGeometry>
        </mxCell>
        <mxCell id="z8ccg5G6_Xe8EJRNO6vA-104" value="" style="shape=table;startSize=0;container=1;collapsible=0;childLayout=tableLayout;hachureGap=4;pointerEvents=0;" vertex="1" parent="1">
          <mxGeometry x="365" y="190" width="30" height="40" as="geometry" />
        </mxCell>
        <mxCell id="z8ccg5G6_Xe8EJRNO6vA-105" value="" style="shape=partialRectangle;collapsible=0;dropTarget=0;pointerEvents=0;fillColor=none;top=0;left=0;bottom=0;right=0;points=[[0,0.5],[1,0.5]];portConstraint=eastwest;hachureGap=4;" vertex="1" parent="z8ccg5G6_Xe8EJRNO6vA-104">
          <mxGeometry width="30" height="20" as="geometry" />
        </mxCell>
        <mxCell id="z8ccg5G6_Xe8EJRNO6vA-106" value="&lt;u&gt;7&lt;/u&gt;&lt;b&gt;4&lt;/b&gt;" style="shape=partialRectangle;html=1;whiteSpace=wrap;connectable=0;overflow=hidden;fillColor=none;top=0;left=0;bottom=0;right=0;pointerEvents=1;hachureGap=4;" vertex="1" parent="z8ccg5G6_Xe8EJRNO6vA-105">
          <mxGeometry width="30" height="20" as="geometry">
            <mxRectangle width="30" height="20" as="alternateBounds" />
          </mxGeometry>
        </mxCell>
        <mxCell id="z8ccg5G6_Xe8EJRNO6vA-107" value="" style="shape=partialRectangle;collapsible=0;dropTarget=0;pointerEvents=0;fillColor=none;top=0;left=0;bottom=0;right=0;points=[[0,0.5],[1,0.5]];portConstraint=eastwest;hachureGap=4;" vertex="1" parent="z8ccg5G6_Xe8EJRNO6vA-104">
          <mxGeometry y="20" width="30" height="20" as="geometry" />
        </mxCell>
        <mxCell id="z8ccg5G6_Xe8EJRNO6vA-108" value="&lt;u&gt;8&lt;/u&gt;&lt;b&gt;6&lt;/b&gt;" style="shape=partialRectangle;html=1;whiteSpace=wrap;connectable=0;overflow=hidden;fillColor=none;top=0;left=0;bottom=0;right=0;pointerEvents=1;hachureGap=4;" vertex="1" parent="z8ccg5G6_Xe8EJRNO6vA-107">
          <mxGeometry width="30" height="20" as="geometry">
            <mxRectangle width="30" height="20" as="alternateBounds" />
          </mxGeometry>
        </mxCell>
        <mxCell id="z8ccg5G6_Xe8EJRNO6vA-193" value="" style="edgeStyle=none;curved=1;rounded=0;orthogonalLoop=1;jettySize=auto;html=1;endArrow=open;startSize=14;endSize=14;sourcePerimeterSpacing=8;targetPerimeterSpacing=8;fillColor=#f8cecc;strokeColor=#b85450;entryX=0.433;entryY=0.05;entryDx=0;entryDy=0;entryPerimeter=0;" edge="1" parent="1" source="z8ccg5G6_Xe8EJRNO6vA-109" target="z8ccg5G6_Xe8EJRNO6vA-65">
          <mxGeometry relative="1" as="geometry">
            <mxPoint x="417" y="270" as="targetPoint" />
          </mxGeometry>
        </mxCell>
        <mxCell id="z8ccg5G6_Xe8EJRNO6vA-109" value="" style="shape=table;startSize=0;container=1;collapsible=0;childLayout=tableLayout;hachureGap=4;pointerEvents=0;" vertex="1" parent="1">
          <mxGeometry x="410" y="190" width="30" height="40" as="geometry" />
        </mxCell>
        <mxCell id="z8ccg5G6_Xe8EJRNO6vA-110" value="" style="shape=partialRectangle;collapsible=0;dropTarget=0;pointerEvents=0;fillColor=none;top=0;left=0;bottom=0;right=0;points=[[0,0.5],[1,0.5]];portConstraint=eastwest;hachureGap=4;" vertex="1" parent="z8ccg5G6_Xe8EJRNO6vA-109">
          <mxGeometry width="30" height="20" as="geometry" />
        </mxCell>
        <mxCell id="z8ccg5G6_Xe8EJRNO6vA-111" value="&lt;u&gt;1&lt;/u&gt;&lt;b&gt;44&lt;/b&gt;" style="shape=partialRectangle;html=1;whiteSpace=wrap;connectable=0;overflow=hidden;fillColor=none;top=0;left=0;bottom=0;right=0;pointerEvents=1;hachureGap=4;" vertex="1" parent="z8ccg5G6_Xe8EJRNO6vA-110">
          <mxGeometry width="30" height="20" as="geometry">
            <mxRectangle width="30" height="20" as="alternateBounds" />
          </mxGeometry>
        </mxCell>
        <mxCell id="z8ccg5G6_Xe8EJRNO6vA-112" value="" style="shape=partialRectangle;collapsible=0;dropTarget=0;pointerEvents=0;fillColor=none;top=0;left=0;bottom=0;right=0;points=[[0,0.5],[1,0.5]];portConstraint=eastwest;hachureGap=4;" vertex="1" parent="z8ccg5G6_Xe8EJRNO6vA-109">
          <mxGeometry y="20" width="30" height="20" as="geometry" />
        </mxCell>
        <mxCell id="z8ccg5G6_Xe8EJRNO6vA-113" value="&lt;u&gt;1&lt;/u&gt;&lt;b&gt;39&lt;/b&gt;" style="shape=partialRectangle;html=1;whiteSpace=wrap;connectable=0;overflow=hidden;fillColor=none;top=0;left=0;bottom=0;right=0;pointerEvents=1;hachureGap=4;" vertex="1" parent="z8ccg5G6_Xe8EJRNO6vA-112">
          <mxGeometry width="30" height="20" as="geometry">
            <mxRectangle width="30" height="20" as="alternateBounds" />
          </mxGeometry>
        </mxCell>
        <mxCell id="z8ccg5G6_Xe8EJRNO6vA-180" value="" style="edgeStyle=none;curved=1;rounded=0;orthogonalLoop=1;jettySize=auto;html=1;endArrow=open;startSize=14;endSize=14;sourcePerimeterSpacing=8;targetPerimeterSpacing=8;fillColor=#dae8fc;strokeColor=#6c8ebf;" edge="1" parent="1" source="z8ccg5G6_Xe8EJRNO6vA-115">
          <mxGeometry relative="1" as="geometry">
            <mxPoint x="100" y="190" as="targetPoint" />
          </mxGeometry>
        </mxCell>
        <mxCell id="z8ccg5G6_Xe8EJRNO6vA-115" value="" style="shape=table;startSize=0;container=1;collapsible=0;childLayout=tableLayout;hachureGap=4;pointerEvents=0;" vertex="1" parent="1">
          <mxGeometry x="80" y="110" width="40" height="40" as="geometry" />
        </mxCell>
        <mxCell id="z8ccg5G6_Xe8EJRNO6vA-116" value="" style="shape=partialRectangle;collapsible=0;dropTarget=0;pointerEvents=0;fillColor=none;top=0;left=0;bottom=0;right=0;points=[[0,0.5],[1,0.5]];portConstraint=eastwest;hachureGap=4;" vertex="1" parent="z8ccg5G6_Xe8EJRNO6vA-115">
          <mxGeometry width="40" height="20" as="geometry" />
        </mxCell>
        <mxCell id="z8ccg5G6_Xe8EJRNO6vA-117" value="&lt;u&gt;41&lt;/u&gt;&lt;b&gt;13&lt;/b&gt;" style="shape=partialRectangle;html=1;whiteSpace=wrap;connectable=0;overflow=hidden;fillColor=none;top=0;left=0;bottom=0;right=0;pointerEvents=1;hachureGap=4;" vertex="1" parent="z8ccg5G6_Xe8EJRNO6vA-116">
          <mxGeometry width="40" height="20" as="geometry">
            <mxRectangle width="40" height="20" as="alternateBounds" />
          </mxGeometry>
        </mxCell>
        <mxCell id="z8ccg5G6_Xe8EJRNO6vA-118" value="" style="shape=partialRectangle;collapsible=0;dropTarget=0;pointerEvents=0;fillColor=none;top=0;left=0;bottom=0;right=0;points=[[0,0.5],[1,0.5]];portConstraint=eastwest;hachureGap=4;" vertex="1" parent="z8ccg5G6_Xe8EJRNO6vA-115">
          <mxGeometry y="20" width="40" height="20" as="geometry" />
        </mxCell>
        <mxCell id="z8ccg5G6_Xe8EJRNO6vA-119" value="&lt;u&gt;64&lt;/u&gt;&lt;b&gt;55&lt;/b&gt;" style="shape=partialRectangle;html=1;whiteSpace=wrap;connectable=0;overflow=hidden;fillColor=none;top=0;left=0;bottom=0;right=0;pointerEvents=1;hachureGap=4;" vertex="1" parent="z8ccg5G6_Xe8EJRNO6vA-118">
          <mxGeometry width="40" height="20" as="geometry">
            <mxRectangle width="40" height="20" as="alternateBounds" />
          </mxGeometry>
        </mxCell>
        <mxCell id="z8ccg5G6_Xe8EJRNO6vA-179" value="" style="edgeStyle=none;curved=1;rounded=0;orthogonalLoop=1;jettySize=auto;html=1;endArrow=open;startSize=14;endSize=14;sourcePerimeterSpacing=8;targetPerimeterSpacing=8;fillColor=#dae8fc;strokeColor=#6c8ebf;" edge="1" parent="1" source="z8ccg5G6_Xe8EJRNO6vA-150" target="z8ccg5G6_Xe8EJRNO6vA-90">
          <mxGeometry relative="1" as="geometry" />
        </mxCell>
        <mxCell id="z8ccg5G6_Xe8EJRNO6vA-150" value="" style="shape=table;startSize=0;container=1;collapsible=0;childLayout=tableLayout;hachureGap=4;pointerEvents=0;" vertex="1" parent="1">
          <mxGeometry x="220" y="110" width="40" height="40" as="geometry" />
        </mxCell>
        <mxCell id="z8ccg5G6_Xe8EJRNO6vA-151" value="" style="shape=partialRectangle;collapsible=0;dropTarget=0;pointerEvents=0;fillColor=none;top=0;left=0;bottom=0;right=0;points=[[0,0.5],[1,0.5]];portConstraint=eastwest;hachureGap=4;" vertex="1" parent="z8ccg5G6_Xe8EJRNO6vA-150">
          <mxGeometry width="40" height="20" as="geometry" />
        </mxCell>
        <mxCell id="z8ccg5G6_Xe8EJRNO6vA-152" value="&lt;u&gt;33&lt;/u&gt;&lt;b&gt;57&lt;/b&gt;" style="shape=partialRectangle;html=1;whiteSpace=wrap;connectable=0;overflow=hidden;fillColor=none;top=0;left=0;bottom=0;right=0;pointerEvents=1;hachureGap=4;" vertex="1" parent="z8ccg5G6_Xe8EJRNO6vA-151">
          <mxGeometry width="40" height="20" as="geometry">
            <mxRectangle width="40" height="20" as="alternateBounds" />
          </mxGeometry>
        </mxCell>
        <mxCell id="z8ccg5G6_Xe8EJRNO6vA-153" value="" style="shape=partialRectangle;collapsible=0;dropTarget=0;pointerEvents=0;fillColor=none;top=0;left=0;bottom=0;right=0;points=[[0,0.5],[1,0.5]];portConstraint=eastwest;hachureGap=4;" vertex="1" parent="z8ccg5G6_Xe8EJRNO6vA-150">
          <mxGeometry y="20" width="40" height="20" as="geometry" />
        </mxCell>
        <mxCell id="z8ccg5G6_Xe8EJRNO6vA-154" value="&lt;u&gt;21&lt;/u&gt;&lt;b&gt;98&lt;/b&gt;" style="shape=partialRectangle;html=1;whiteSpace=wrap;connectable=0;overflow=hidden;fillColor=none;top=0;left=0;bottom=0;right=0;pointerEvents=1;hachureGap=4;" vertex="1" parent="z8ccg5G6_Xe8EJRNO6vA-153">
          <mxGeometry width="40" height="20" as="geometry">
            <mxRectangle width="40" height="20" as="alternateBounds" />
          </mxGeometry>
        </mxCell>
        <mxCell id="z8ccg5G6_Xe8EJRNO6vA-178" value="" style="edgeStyle=none;curved=1;rounded=0;orthogonalLoop=1;jettySize=auto;html=1;endArrow=open;startSize=14;endSize=14;sourcePerimeterSpacing=8;targetPerimeterSpacing=8;entryX=0.467;entryY=-0.05;entryDx=0;entryDy=0;entryPerimeter=0;fillColor=#dae8fc;strokeColor=#6c8ebf;" edge="1" parent="1" source="z8ccg5G6_Xe8EJRNO6vA-155" target="z8ccg5G6_Xe8EJRNO6vA-105">
          <mxGeometry relative="1" as="geometry" />
        </mxCell>
        <mxCell id="z8ccg5G6_Xe8EJRNO6vA-155" value="" style="shape=table;startSize=0;container=1;collapsible=0;childLayout=tableLayout;hachureGap=4;pointerEvents=0;" vertex="1" parent="1">
          <mxGeometry x="360" y="110" width="40" height="40" as="geometry" />
        </mxCell>
        <mxCell id="z8ccg5G6_Xe8EJRNO6vA-156" value="" style="shape=partialRectangle;collapsible=0;dropTarget=0;pointerEvents=0;fillColor=none;top=0;left=0;bottom=0;right=0;points=[[0,0.5],[1,0.5]];portConstraint=eastwest;hachureGap=4;" vertex="1" parent="z8ccg5G6_Xe8EJRNO6vA-155">
          <mxGeometry width="40" height="20" as="geometry" />
        </mxCell>
        <mxCell id="z8ccg5G6_Xe8EJRNO6vA-157" value="&lt;u&gt;74&lt;/u&gt;&lt;b&gt;70&lt;/b&gt;" style="shape=partialRectangle;html=1;whiteSpace=wrap;connectable=0;overflow=hidden;fillColor=none;top=0;left=0;bottom=0;right=0;pointerEvents=1;hachureGap=4;" vertex="1" parent="z8ccg5G6_Xe8EJRNO6vA-156">
          <mxGeometry width="40" height="20" as="geometry">
            <mxRectangle width="40" height="20" as="alternateBounds" />
          </mxGeometry>
        </mxCell>
        <mxCell id="z8ccg5G6_Xe8EJRNO6vA-158" value="" style="shape=partialRectangle;collapsible=0;dropTarget=0;pointerEvents=0;fillColor=none;top=0;left=0;bottom=0;right=0;points=[[0,0.5],[1,0.5]];portConstraint=eastwest;hachureGap=4;" vertex="1" parent="z8ccg5G6_Xe8EJRNO6vA-155">
          <mxGeometry y="20" width="40" height="20" as="geometry" />
        </mxCell>
        <mxCell id="z8ccg5G6_Xe8EJRNO6vA-159" value="&lt;u&gt;86&lt;/u&gt;&lt;b&gt;53&lt;/b&gt;" style="shape=partialRectangle;html=1;whiteSpace=wrap;connectable=0;overflow=hidden;fillColor=none;top=0;left=0;bottom=0;right=0;pointerEvents=1;hachureGap=4;" vertex="1" parent="z8ccg5G6_Xe8EJRNO6vA-158">
          <mxGeometry width="40" height="20" as="geometry">
            <mxRectangle width="40" height="20" as="alternateBounds" />
          </mxGeometry>
        </mxCell>
        <mxCell id="z8ccg5G6_Xe8EJRNO6vA-170" value="" style="edgeStyle=none;curved=1;rounded=0;orthogonalLoop=1;jettySize=auto;html=1;endArrow=open;startSize=14;endSize=14;sourcePerimeterSpacing=8;targetPerimeterSpacing=8;fillColor=#dae8fc;strokeColor=#6c8ebf;" edge="1" parent="1" source="z8ccg5G6_Xe8EJRNO6vA-160">
          <mxGeometry relative="1" as="geometry">
            <mxPoint x="240" y="110" as="targetPoint" />
          </mxGeometry>
        </mxCell>
        <mxCell id="z8ccg5G6_Xe8EJRNO6vA-160" value="" style="shape=table;startSize=0;container=1;collapsible=0;childLayout=tableLayout;hachureGap=4;pointerEvents=0;" vertex="1" parent="1">
          <mxGeometry x="200" y="30" width="80" height="40" as="geometry" />
        </mxCell>
        <mxCell id="z8ccg5G6_Xe8EJRNO6vA-161" value="" style="shape=partialRectangle;collapsible=0;dropTarget=0;pointerEvents=0;fillColor=none;top=0;left=0;bottom=0;right=0;points=[[0,0.5],[1,0.5]];portConstraint=eastwest;hachureGap=4;" vertex="1" parent="z8ccg5G6_Xe8EJRNO6vA-160">
          <mxGeometry width="80" height="20" as="geometry" />
        </mxCell>
        <mxCell id="z8ccg5G6_Xe8EJRNO6vA-162" value="&lt;u&gt;3357&lt;/u&gt;&lt;b&gt;4113&lt;/b&gt;" style="shape=partialRectangle;html=1;whiteSpace=wrap;connectable=0;overflow=hidden;fillColor=none;top=0;left=0;bottom=0;right=0;pointerEvents=1;hachureGap=4;" vertex="1" parent="z8ccg5G6_Xe8EJRNO6vA-161">
          <mxGeometry width="80" height="20" as="geometry">
            <mxRectangle width="80" height="20" as="alternateBounds" />
          </mxGeometry>
        </mxCell>
        <mxCell id="z8ccg5G6_Xe8EJRNO6vA-163" value="" style="shape=partialRectangle;collapsible=0;dropTarget=0;pointerEvents=0;fillColor=none;top=0;left=0;bottom=0;right=0;points=[[0,0.5],[1,0.5]];portConstraint=eastwest;hachureGap=4;" vertex="1" parent="z8ccg5G6_Xe8EJRNO6vA-160">
          <mxGeometry y="20" width="80" height="20" as="geometry" />
        </mxCell>
        <mxCell id="z8ccg5G6_Xe8EJRNO6vA-164" value="&lt;u&gt;2198&lt;/u&gt;&lt;b&gt;6455&lt;/b&gt;" style="shape=partialRectangle;html=1;whiteSpace=wrap;connectable=0;overflow=hidden;fillColor=none;top=0;left=0;bottom=0;right=0;pointerEvents=1;hachureGap=4;" vertex="1" parent="z8ccg5G6_Xe8EJRNO6vA-163">
          <mxGeometry width="80" height="20" as="geometry">
            <mxRectangle width="80" height="20" as="alternateBounds" />
          </mxGeometry>
        </mxCell>
        <mxCell id="z8ccg5G6_Xe8EJRNO6vA-168" style="edgeStyle=none;curved=1;rounded=0;orthogonalLoop=1;jettySize=auto;html=1;entryX=0.575;entryY=-0.25;entryDx=0;entryDy=0;entryPerimeter=0;endArrow=open;startSize=14;endSize=14;sourcePerimeterSpacing=8;targetPerimeterSpacing=8;fillColor=#d5e8d4;strokeColor=#82b366;" edge="1" parent="1" source="z8ccg5G6_Xe8EJRNO6vA-163" target="z8ccg5G6_Xe8EJRNO6vA-116">
          <mxGeometry relative="1" as="geometry" />
        </mxCell>
        <mxCell id="z8ccg5G6_Xe8EJRNO6vA-169" style="edgeStyle=none;curved=1;rounded=0;orthogonalLoop=1;jettySize=auto;html=1;exitX=1;exitY=0.5;exitDx=0;exitDy=0;entryX=0.525;entryY=-0.1;entryDx=0;entryDy=0;entryPerimeter=0;endArrow=open;startSize=14;endSize=14;sourcePerimeterSpacing=8;targetPerimeterSpacing=8;fillColor=#f8cecc;strokeColor=#b85450;" edge="1" parent="1" source="z8ccg5G6_Xe8EJRNO6vA-163" target="z8ccg5G6_Xe8EJRNO6vA-156">
          <mxGeometry relative="1" as="geometry" />
        </mxCell>
        <mxCell id="z8ccg5G6_Xe8EJRNO6vA-171" style="edgeStyle=none;curved=1;rounded=0;orthogonalLoop=1;jettySize=auto;html=1;entryX=0.467;entryY=-0.15;entryDx=0;entryDy=0;entryPerimeter=0;endArrow=open;startSize=14;endSize=14;sourcePerimeterSpacing=8;targetPerimeterSpacing=8;fillColor=#d5e8d4;strokeColor=#82b366;" edge="1" parent="1" source="z8ccg5G6_Xe8EJRNO6vA-118" target="z8ccg5G6_Xe8EJRNO6vA-70">
          <mxGeometry relative="1" as="geometry" />
        </mxCell>
        <mxCell id="z8ccg5G6_Xe8EJRNO6vA-172" style="edgeStyle=none;curved=1;rounded=0;orthogonalLoop=1;jettySize=auto;html=1;entryX=0.467;entryY=-0.2;entryDx=0;entryDy=0;entryPerimeter=0;endArrow=open;startSize=14;endSize=14;sourcePerimeterSpacing=8;targetPerimeterSpacing=8;fillColor=#f8cecc;strokeColor=#b85450;" edge="1" parent="1" source="z8ccg5G6_Xe8EJRNO6vA-118" target="z8ccg5G6_Xe8EJRNO6vA-80">
          <mxGeometry relative="1" as="geometry" />
        </mxCell>
        <mxCell id="z8ccg5G6_Xe8EJRNO6vA-173" style="edgeStyle=none;curved=1;rounded=0;orthogonalLoop=1;jettySize=auto;html=1;entryX=0.467;entryY=-0.15;entryDx=0;entryDy=0;entryPerimeter=0;endArrow=open;startSize=14;endSize=14;sourcePerimeterSpacing=8;targetPerimeterSpacing=8;fillColor=#d5e8d4;strokeColor=#82b366;" edge="1" parent="1" source="z8ccg5G6_Xe8EJRNO6vA-153" target="z8ccg5G6_Xe8EJRNO6vA-85">
          <mxGeometry relative="1" as="geometry" />
        </mxCell>
        <mxCell id="z8ccg5G6_Xe8EJRNO6vA-174" style="edgeStyle=none;curved=1;rounded=0;orthogonalLoop=1;jettySize=auto;html=1;entryX=0.433;entryY=-0.1;entryDx=0;entryDy=0;entryPerimeter=0;endArrow=open;startSize=14;endSize=14;sourcePerimeterSpacing=8;targetPerimeterSpacing=8;fillColor=#f8cecc;strokeColor=#b85450;" edge="1" parent="1" source="z8ccg5G6_Xe8EJRNO6vA-153" target="z8ccg5G6_Xe8EJRNO6vA-95">
          <mxGeometry relative="1" as="geometry" />
        </mxCell>
        <mxCell id="z8ccg5G6_Xe8EJRNO6vA-175" style="edgeStyle=none;curved=1;rounded=0;orthogonalLoop=1;jettySize=auto;html=1;entryX=0.367;entryY=-0.05;entryDx=0;entryDy=0;entryPerimeter=0;endArrow=open;startSize=14;endSize=14;sourcePerimeterSpacing=8;targetPerimeterSpacing=8;fillColor=#d5e8d4;strokeColor=#82b366;" edge="1" parent="1" source="z8ccg5G6_Xe8EJRNO6vA-158" target="z8ccg5G6_Xe8EJRNO6vA-100">
          <mxGeometry relative="1" as="geometry" />
        </mxCell>
        <mxCell id="z8ccg5G6_Xe8EJRNO6vA-177" style="edgeStyle=none;curved=1;rounded=0;orthogonalLoop=1;jettySize=auto;html=1;endArrow=open;startSize=14;endSize=14;sourcePerimeterSpacing=8;targetPerimeterSpacing=8;entryX=0.467;entryY=-0.1;entryDx=0;entryDy=0;entryPerimeter=0;fillColor=#f8cecc;strokeColor=#b85450;" edge="1" parent="1" source="z8ccg5G6_Xe8EJRNO6vA-158" target="z8ccg5G6_Xe8EJRNO6vA-110">
          <mxGeometry relative="1" as="geometry">
            <mxPoint x="430" y="180" as="targetPoint" />
          </mxGeometry>
        </mxCell>
        <mxCell id="z8ccg5G6_Xe8EJRNO6vA-181" style="edgeStyle=none;curved=1;rounded=0;orthogonalLoop=1;jettySize=auto;html=1;endArrow=open;startSize=14;endSize=14;sourcePerimeterSpacing=8;targetPerimeterSpacing=8;fillColor=#f8cecc;strokeColor=#b85450;" edge="1" parent="1" source="z8ccg5G6_Xe8EJRNO6vA-72" target="z8ccg5G6_Xe8EJRNO6vA-20">
          <mxGeometry relative="1" as="geometry" />
        </mxCell>
        <mxCell id="z8ccg5G6_Xe8EJRNO6vA-185" style="edgeStyle=none;curved=1;rounded=0;orthogonalLoop=1;jettySize=auto;html=1;entryX=0.467;entryY=0;entryDx=0;entryDy=0;entryPerimeter=0;endArrow=open;startSize=14;endSize=14;sourcePerimeterSpacing=8;targetPerimeterSpacing=8;fillColor=#f8cecc;strokeColor=#b85450;" edge="1" parent="1" source="z8ccg5G6_Xe8EJRNO6vA-82" target="z8ccg5G6_Xe8EJRNO6vA-35">
          <mxGeometry relative="1" as="geometry" />
        </mxCell>
        <mxCell id="z8ccg5G6_Xe8EJRNO6vA-190" style="edgeStyle=none;curved=1;rounded=0;orthogonalLoop=1;jettySize=auto;html=1;exitX=0.4;exitY=1.1;exitDx=0;exitDy=0;entryX=0.4;entryY=0;entryDx=0;entryDy=0;entryPerimeter=0;endArrow=open;startSize=14;endSize=14;sourcePerimeterSpacing=8;targetPerimeterSpacing=8;fillColor=#f8cecc;strokeColor=#b85450;exitPerimeter=0;" edge="1" parent="1" source="z8ccg5G6_Xe8EJRNO6vA-107" target="z8ccg5G6_Xe8EJRNO6vA-55">
          <mxGeometry relative="1" as="geometry" />
        </mxCell>
        <mxCell id="z8ccg5G6_Xe8EJRNO6vA-191" style="edgeStyle=none;curved=1;rounded=0;orthogonalLoop=1;jettySize=auto;html=1;exitX=0;exitY=0.5;exitDx=0;exitDy=0;entryX=0.533;entryY=-0.25;entryDx=0;entryDy=0;entryPerimeter=0;endArrow=open;startSize=14;endSize=14;sourcePerimeterSpacing=8;targetPerimeterSpacing=8;fillColor=#d5e8d4;strokeColor=#82b366;" edge="1" parent="1" source="z8ccg5G6_Xe8EJRNO6vA-112" target="z8ccg5G6_Xe8EJRNO6vA-60">
          <mxGeometry relative="1" as="geometry" />
        </mxCell>
      </root>
    </mxGraphModel>
  </diagram>
</mxfile>
